<svg width="251" height="70" viewBox="0 0 251 70" fill="none" xmlns="http://www.w3.org/2000/svg">
<g clip-path="url(#clip0)">
<path d="M133.201 31.8761C133.201 19.1803 142.821 9.56284 155.674 9.56284C168.528 9.56284 178.049 19.1257 178.049 31.8761C178.049 44.6266 168.478 54.1894 155.674 54.1894C142.87 54.1894 133.201 44.5674 133.201 31.8761ZM168.819 31.8761C168.819 24.1348 163.182 18.2923 155.674 18.2923C148.166 18.2923 142.435 24.1758 142.435 31.8761C142.435 39.5765 148.171 45.4599 155.674 45.4599C163.177 45.4599 168.819 39.6175 168.819 31.8761Z" fill="white"/>
<path d="M207.874 45.3643L205.25 52.9053C205.215 53.0072 205.15 53.0955 205.063 53.1576C204.976 53.2197 204.872 53.2525 204.766 53.2514H182.727C182.591 53.2514 182.46 53.1968 182.364 53.0996C182.267 53.0024 182.212 52.8703 182.211 52.7322V11.0155C182.209 10.9452 182.22 10.8751 182.245 10.8095C182.27 10.7438 182.308 10.6839 182.356 10.6333C182.404 10.5828 182.462 10.5426 182.525 10.5151C182.589 10.4877 182.658 10.4735 182.727 10.4736H190.8C190.868 10.473 190.935 10.4861 190.998 10.5122C191.061 10.5383 191.118 10.5769 191.166 10.6256C191.214 10.6744 191.252 10.7323 191.277 10.7961C191.303 10.8599 191.316 10.9283 191.315 10.9973V44.1439C191.315 44.2128 191.328 44.2812 191.353 44.345C191.379 44.4088 191.417 44.4668 191.465 44.5155C191.513 44.5643 191.57 44.6028 191.633 44.6289C191.696 44.655 191.763 44.6682 191.831 44.6676H207.376C207.459 44.6657 207.542 44.6845 207.616 44.7221C207.691 44.7597 207.755 44.8151 207.804 44.8836C207.853 44.9521 207.885 45.0316 207.897 45.1153C207.909 45.199 207.901 45.2844 207.874 45.3643Z" fill="white"/>
<path d="M250.803 52.5364L234.182 10.8197C234.147 10.7192 234.083 10.6319 233.998 10.57C233.913 10.508 233.811 10.4743 233.706 10.4736H225.997C225.835 10.474 225.677 10.5237 225.544 10.6163C225.41 10.7088 225.307 10.84 225.248 10.9927L208.945 53.092V53.2332H218.547L218.794 52.7231V52.6685L221.485 45.1275H237.9C238.005 45.127 238.107 45.1595 238.193 45.2207C238.279 45.2819 238.344 45.3687 238.38 45.469L241.071 52.8916C241.106 52.992 241.171 53.0788 241.257 53.14C241.343 53.2011 241.445 53.2337 241.55 53.2332H250.318C250.401 53.2338 250.482 53.2142 250.556 53.1759C250.629 53.1376 250.692 53.0819 250.74 53.0134C250.788 52.945 250.818 52.8658 250.829 52.7827C250.84 52.6997 250.831 52.6152 250.803 52.5364ZM234.657 37.0811H224.342L229.356 23.1284C229.392 23.0276 229.458 22.9406 229.545 22.8791C229.632 22.8176 229.735 22.7847 229.84 22.7847C229.946 22.7847 230.049 22.8176 230.136 22.8791C230.223 22.9406 230.288 23.0276 230.325 23.1284L235.137 36.3798C235.165 36.4584 235.174 36.5427 235.163 36.6256C235.152 36.7085 235.122 36.7876 235.075 36.8562C235.028 36.9249 234.966 36.9811 234.893 37.0202C234.82 37.0593 234.739 37.0802 234.657 37.0811Z" fill="white"/>
<path d="M106.291 11.2477C106.254 11.1566 106.193 11.0781 106.113 11.0216C106.034 10.9651 105.94 10.9329 105.843 10.929H103.461C103.359 10.9296 103.259 10.961 103.175 11.0194C103.09 11.0778 103.024 11.1605 102.986 11.2568L92.5811 37.5091C92.5424 37.6106 92.4733 37.6973 92.3835 37.7567C92.2936 37.8162 92.1877 37.8455 92.0806 37.8404C91.9735 37.8354 91.8706 37.7963 91.7866 37.7287C91.7026 37.661 91.6416 37.5683 91.6124 37.4636L83.867 10.8652C83.8358 10.757 83.7708 10.6621 83.6818 10.5947C83.5928 10.5273 83.4847 10.4912 83.3737 10.4918H74.7941C74.7137 10.4924 74.6345 10.5121 74.5628 10.5494C74.4912 10.5866 74.4292 10.6403 74.3817 10.7063C74.3342 10.7722 74.3025 10.8485 74.2893 10.9291C74.276 11.0097 74.2815 11.0923 74.3053 11.1703L87.271 52.8871C87.3035 52.9928 87.3685 53.0852 87.4565 53.1507C87.5445 53.2163 87.6508 53.2515 87.7599 53.2514H95.1375C95.2411 53.2513 95.3423 53.2196 95.4279 53.1603C95.5135 53.101 95.5795 53.0169 95.6173 52.9189L102.533 34.7723L107.991 19.5446C108.498 18.1347 108.466 16.5829 107.901 15.1958L106.291 11.2477Z" fill="white"/>
<path d="M134.429 10.4736H126.025C125.913 10.474 125.805 10.5111 125.716 10.5792C125.627 10.6474 125.562 10.7429 125.531 10.8515L117.952 37.459C117.924 37.5642 117.864 37.6577 117.78 37.7262C117.697 37.7948 117.594 37.8349 117.487 37.841C117.38 37.847 117.274 37.8187 117.183 37.7599C117.093 37.7012 117.023 37.615 116.983 37.5137L110.669 22.031L106.601 34.2851L113.916 52.9554C113.954 53.0528 114.02 53.1363 114.106 53.1948C114.191 53.2534 114.292 53.2842 114.395 53.2832H121.769C121.879 53.2841 121.987 53.2486 122.076 53.1822C122.165 53.1157 122.23 53.0217 122.262 52.9144L134.936 11.2022C134.971 11.12 134.984 11.0301 134.975 10.9412C134.966 10.8522 134.934 10.7672 134.883 10.6941C134.832 10.6211 134.764 10.5624 134.685 10.5238C134.605 10.4852 134.517 10.4679 134.429 10.4736Z" fill="white"/>
<path d="M183.88 65.0137C183.88 65.1138 183.88 65.2186 183.88 65.3233C183.88 66.5801 184.664 67.3588 185.978 67.3588C186.482 67.3633 186.979 67.2449 187.428 67.0135C187.876 66.7821 188.264 66.4445 188.557 66.0291H189.773C189.402 66.7372 188.851 67.3316 188.178 67.7504C187.504 68.1692 186.732 68.3972 185.943 68.4107C185.532 68.4301 185.121 68.3624 184.738 68.2119C184.354 68.0615 184.005 67.8316 183.714 67.537C183.422 67.2423 183.194 66.8893 183.045 66.5003C182.895 66.1114 182.826 65.695 182.844 65.2778C182.855 64.099 183.316 62.9705 184.13 62.1297C184.943 61.2889 186.047 60.8014 187.207 60.7696C189.104 60.7696 190.253 62.1038 190.253 63.9162C190.246 64.287 190.195 64.6556 190.1 65.0137H183.88ZM184.117 63.9936H189.226V63.9208C189.251 63.6369 189.214 63.3508 189.119 63.0827C189.024 62.8145 188.872 62.5708 188.674 62.3686C188.476 62.1664 188.237 62.0106 187.974 61.9121C187.71 61.8137 187.429 61.775 187.149 61.7987C186.481 61.8078 185.831 62.0224 185.286 62.4143C184.741 62.8062 184.325 63.3569 184.095 63.9936H184.117Z" fill="white"/>
<path d="M200.025 58.3151L198.061 68.2514H197.222L197.28 67.2586C196.477 68.0017 195.429 68.4127 194.343 68.4107C193.93 68.4334 193.518 68.3681 193.131 68.2191C192.745 68.0701 192.394 67.8407 192.1 67.5456C191.807 67.2505 191.577 66.8962 191.427 66.5057C191.276 66.1151 191.208 65.6968 191.226 65.2778C191.237 64.0858 191.709 62.946 192.539 62.1031C193.369 61.2602 194.492 60.7814 195.666 60.7696C196.157 60.7456 196.647 60.8453 197.091 61.0598C197.536 61.2743 197.921 61.597 198.213 61.9991L198.94 58.3151H200.025ZM197.827 63.9344C197.827 62.6776 196.962 61.8443 195.621 61.8443C194.75 61.8763 193.923 62.2439 193.309 62.8723C192.695 63.5007 192.34 64.3429 192.316 65.2277C192.316 66.4845 193.212 67.3361 194.558 67.3361C195.427 67.3 196.249 66.9273 196.855 66.2946C197.462 65.6619 197.807 64.8173 197.818 63.9344H197.827Z" fill="white"/>
<path d="M200.774 65.8652C200.774 65.3734 200.877 65 201.671 60.929H202.752C201.94 65.0956 201.855 65.2823 201.855 65.6876C201.855 66.7441 202.478 67.3588 203.564 67.3588C204.909 67.3588 205.864 66.4481 206.147 65.0182L206.941 60.9199H208.026L207.201 65.2231C206.815 67.1858 205.479 68.4107 203.505 68.4107C201.819 68.4107 200.796 67.3952 200.774 65.8652Z" fill="white"/>
<path d="M208.887 65.2732C208.9 64.0789 209.375 62.9376 210.208 62.0951C211.042 61.2527 212.169 60.7767 213.345 60.7696C215.054 60.7696 216.211 61.7987 216.386 63.3743H215.327C215.219 62.9075 214.951 62.4949 214.57 62.2105C214.19 61.926 213.722 61.7882 213.251 61.8215C212.38 61.8654 211.558 62.2443 210.953 62.8812C210.347 63.5181 210.003 64.3652 209.99 65.2505C209.977 65.534 210.023 65.8172 210.125 66.0815C210.227 66.3458 210.383 66.5853 210.582 66.7843C210.782 66.9833 211.02 67.1374 211.282 67.2364C211.544 67.3354 211.824 67.3771 212.103 67.3588C212.656 67.3535 213.199 67.2047 213.681 66.9266C214.162 66.6485 214.565 66.2502 214.852 65.7696H215.982C215.641 66.5521 215.085 67.2178 214.38 67.6864C213.675 68.155 212.851 68.4066 212.009 68.4107C211.595 68.4334 211.182 68.368 210.796 68.2188C210.409 68.0695 210.057 67.8398 209.763 67.5442C209.469 67.2487 209.239 66.894 209.088 66.5029C208.938 66.1117 208.869 65.6929 208.887 65.2732Z" fill="white"/>
<path d="M225.49 60.9289L224.05 68.2514H223.153L223.252 67.1858C222.441 67.9732 221.361 68.4121 220.238 68.4107C219.824 68.436 219.409 68.3727 219.021 68.2249C218.632 68.0771 218.279 67.8482 217.983 67.5529C217.687 67.2575 217.455 66.9025 217.303 66.5106C217.151 66.1187 217.081 65.6987 217.099 65.2778C217.111 64.085 217.583 62.9445 218.414 62.1015C219.245 61.2585 220.369 60.7802 221.543 60.7696C222.077 60.7374 222.609 60.853 223.083 61.1041C223.557 61.3551 223.955 61.7321 224.234 62.1949L224.633 60.9289H225.49ZM223.723 63.9344C223.723 62.6639 222.857 61.8215 221.516 61.8215C220.642 61.8529 219.814 62.2237 219.201 62.8576C218.589 63.4914 218.239 64.3398 218.225 65.2277C218.225 66.4982 219.122 67.3588 220.431 67.3588C221.308 67.3273 222.14 66.9538 222.753 66.3161C223.366 65.6784 223.713 64.8255 223.723 63.9344Z" fill="white"/>
<path d="M228.934 61.9308C228.203 65.6557 228.15 65.8561 228.15 66.1202C228.15 66.8397 228.598 67.245 229.405 67.245H230.266L230.065 68.2741H229.141C227.827 68.2741 227.033 67.5501 227.033 66.3616C227.033 65.9472 227.109 65.6922 227.849 61.9308H226.589L226.638 61.7304L229.271 59.408H229.446L229.141 60.9381H231.419L231.217 61.9308H228.934Z" fill="white"/>
<path d="M232.966 60.929H234.047L232.603 68.2514H231.522L232.966 60.929ZM233.388 58.3515H234.558L234.303 59.6311H233.119L233.388 58.3515Z" fill="white"/>
<path d="M235.007 65.2641C235.022 64.0579 235.508 62.9073 236.358 62.0646C237.209 61.222 238.353 60.7562 239.541 60.7696C241.465 60.7696 242.739 62.0856 242.739 63.9162C242.718 65.1204 242.23 66.2677 241.381 67.109C240.532 67.9504 239.391 68.4181 238.205 68.4107C236.267 68.4107 235.007 67.0947 235.007 65.2641ZM241.631 63.939C241.631 62.6594 240.761 61.8215 239.389 61.8215C238.507 61.8394 237.668 62.2075 237.05 62.847C236.433 63.4864 236.088 64.346 236.088 65.2413C236.088 66.5209 236.985 67.3588 238.33 67.3588C239.21 67.3386 240.047 66.9692 240.661 66.3299C241.276 65.6906 241.619 64.8323 241.618 63.939H241.631Z" fill="white"/>
<path d="M251 63.1102C251 63.6976 250.901 64.0209 250.063 68.2514H248.982C249.803 64.1166 249.879 63.7842 249.879 63.3424C249.879 62.3179 249.336 61.7851 248.282 61.7851C247.634 61.8211 247.015 62.0743 246.523 62.5053C246.031 62.9362 245.694 63.5205 245.564 64.1667L244.762 68.265H243.681L245.12 60.9426H245.892V62.0628C246.234 61.6551 246.661 61.3289 247.141 61.1078C247.622 60.8866 248.145 60.7758 248.672 60.7832C250.134 60.7696 251 61.6712 251 63.1102Z" fill="white"/>
<path d="M37.0001 66.7623C36.5755 67.0645 36.2728 67.5126 36.148 68.0237C37.1178 68.7334 38.1222 69.393 39.1574 70C38.7298 68.9144 38.3967 67.793 38.1617 66.6484C37.9708 66.5852 37.7691 66.5626 37.5692 66.5822C37.3693 66.6018 37.1756 66.6631 37.0001 66.7623Z" fill="white"/>
<path d="M34.4214 45.0455L33.6679 44.5902C32.6857 44.0027 31.6811 43.4016 30.681 42.8415C29.6809 42.2814 28.5955 41.7031 27.4205 41.1248C25.2654 40.0852 22.9533 39.4217 20.5811 39.1621C18.1862 38.9036 15.7664 39.0172 13.4053 39.4991C13.0599 39.5674 12.5756 39.6812 11.9656 39.8452C11.7487 39.8965 11.5444 39.9925 11.3654 40.1272C11.1864 40.2619 11.0366 40.4325 10.9252 40.6284C10.7882 40.875 10.7196 41.1548 10.7267 41.4378C10.7338 41.7209 10.8163 41.9967 10.9655 42.2359C13.3918 46.1339 19.1638 48.2377 23.7967 49.9317L24.7296 50.2687C26.8913 51.0474 28.4744 51.6348 29.7078 52.5455C30.2781 51.1209 30.9699 49.7496 31.7753 48.4472C31.8684 48.2836 32.0046 48.1496 32.1686 48.0603C32.3326 47.971 32.5179 47.9299 32.7037 47.9417C32.9768 47.9429 33.2394 48.0486 33.4392 48.2377C33.5782 48.4009 33.6709 48.5994 33.7072 48.812C33.7436 49.0246 33.7222 49.2432 33.6455 49.4444C33.2896 50.0971 32.9692 50.769 32.6857 51.4572C31.8283 53.6092 31.4146 55.9169 31.4703 58.2377C31.6295 60.8897 32.3695 63.4722 33.6365 65.7969C34.5335 64.8862 35.7579 64.1075 37.9823 64.0346C37.9823 61.3616 38.4308 58.2377 39.4399 56.4618C40.996 53.7645 43.2151 51.5238 45.8802 49.959C44.0737 49.623 42.3104 49.0807 40.6239 48.3424C38.4939 47.3692 36.4227 46.2683 34.4214 45.0455Z" fill="white"/>
<path d="M11.8087 36.3707C11.8087 36.3707 5.10378 29.0847 5.10378 19.663C5.10274 16.9895 5.63646 14.3435 6.67259 11.8857C7.70871 9.42777 9.22565 7.20915 11.1314 5.36429C11.1755 5.26494 11.1872 5.15386 11.1646 5.04733C11.142 4.9408 11.0863 4.84441 11.0059 4.77231C10.9121 4.68666 10.7911 4.63816 10.665 4.6357C10.5786 4.63802 10.494 4.66145 10.4184 4.704C3.09456 8.7295 -0.896966 15.3233 0.174917 24.8042C0.668252 29.0619 2.78959 32.6002 4.52524 34.071C6.83494 36.0246 9.82635 36.7577 11.2884 36.4663L11.8087 36.3707Z" fill="white"/>
<path d="M65.515 30.1503C65.4825 29.0091 65.3459 27.8733 65.1068 26.7577L65.071 26.5528C65.0688 26.5347 65.0688 26.5163 65.071 26.4982C62.1513 31.7213 52.0245 42.3042 34.9551 41.5756C36.9433 42.8107 38.9959 43.9356 41.1038 44.9454C42.1788 45.4512 43.2897 45.8743 44.4271 46.2113C45.0281 46.3934 45.6335 46.5255 46.1403 46.6302L46.4543 46.6849C46.6382 46.7213 46.822 46.7577 47.0059 46.7851L47.9029 46.8989C49.7275 47.06 51.565 46.9819 53.3699 46.6667C63.9094 43.6885 65.7123 33.7341 65.515 30.1503Z" fill="white"/>
<path d="M14.3829 34.959C14.8455 35.4937 15.4824 35.8413 16.1769 35.9381H16.2845C16.733 35.9381 17.1411 35.9381 17.5627 35.9381C21.3121 35.5692 25.6803 37.2177 27.7972 37.6184C31.1465 38.3882 34.6025 38.5577 38.0092 38.1193C40.1783 37.8964 42.3124 37.4055 44.3643 36.6576C44.4752 36.6223 44.5701 36.548 44.6319 36.4481C44.6938 36.3482 44.7186 36.2292 44.7018 36.1124C44.6851 35.9956 44.6279 35.8888 44.5406 35.8109C44.4533 35.733 44.3414 35.6893 44.2252 35.6876C36.3274 35.6922 28.2995 32.245 23.8909 25.9563C23.8069 25.8311 23.7693 25.6798 23.7846 25.5291C23.7999 25.3785 23.8672 25.2381 23.9745 25.133C24.0818 25.0278 24.2223 24.9645 24.3712 24.9544C24.52 24.9442 24.6676 24.9878 24.7878 25.0774C38.812 36.7486 57.4735 30.7787 60.9942 25.8379C61.8418 24.6494 63.0168 21.6621 61.5727 18.7841C59.8685 15.378 56.3792 11.9535 53.0963 9.33515C51.7822 8.28779 50.513 8.91621 49.3649 10.3871C42.8304 18.7204 34.1343 19.5811 29.0529 19.1257C28.992 19.1284 28.9311 19.1188 28.8738 19.0976C28.8164 19.0764 28.7638 19.044 28.7188 19.0021C28.6738 18.9603 28.6374 18.9098 28.6116 18.8537C28.5859 18.7975 28.5712 18.7368 28.5686 18.6749C28.5659 18.613 28.5753 18.5511 28.5962 18.4929C28.6171 18.4347 28.649 18.3813 28.6903 18.3356C28.7315 18.2899 28.7812 18.2529 28.8365 18.2268C28.8918 18.2006 28.9516 18.1857 29.0126 18.1831C38.7896 16.4754 45.1043 9.28051 45.4586 5.92896C45.5438 5.11839 45.3554 4.08014 43.1623 3.2377C39.087 1.70226 34.8482 0.65837 30.5329 0.127501C26.1171 -0.396963 21.6579 0.635093 17.9022 3.05081C14.1464 5.46654 11.3222 9.11922 9.90256 13.3971C9.35403 15.0446 9.00758 16.7545 8.87104 18.4882C8.28801 26.4117 11.4768 31.4208 14.3829 34.959Z" fill="white"/>
</g>
<defs>
<clipPath id="clip0">
<rect width="251" height="70" fill="white"/>
</clipPath>
</defs>
</svg>
